<?xml version="1.0" encoding="utf-8"?>
<!-- Generator: Adobe Illustrator 16.0.0, SVG Export Plug-In . SVG Version: 6.00 Build 0)  -->
<!DOCTYPE svg PUBLIC "-//W3C//DTD SVG 1.1//EN" "http://www.w3.org/Graphics/SVG/1.1/DTD/svg11.dtd">
<svg version="1.1" id="Layer_1" xmlns="http://www.w3.org/2000/svg" xmlns:xlink="http://www.w3.org/1999/xlink" x="0px" y="0px"
	 width="508.08px" height="508.185px" viewBox="0 0 508.08 508.185" enable-background="new 0 0 508.08 508.185"
	 xml:space="preserve">
<g id="Grupo_824" transform="translate(0 0)">
	<path id="Elipse_87" fill="#B2B3B6" d="M253.9,4.414c137.885,0,249.663,111.779,249.663,249.667
		c0,137.885-111.778,249.668-249.663,249.668c-137.889,0-249.667-111.783-249.667-249.668C4.233,116.193,116.011,4.414,253.9,4.414z
		"/>
	<g>
		<path fill="#010101" d="M110.937,453.263c-2.024-1.452-4.844-0.988-6.295,1.039c-0.009,0.011-0.017,0.02-0.021,0.029
			c-1.441,2.021-0.967,4.83,1.054,6.267h-0.006c0.771,0.542,1.688,0.834,2.628,0.834c1.449,0,2.81-0.691,3.655-1.869
			c0.003-0.01,0.012-0.019,0.017-0.028C113.418,457.523,112.956,454.709,110.937,453.263z"/>
		<path fill="#010101" d="M52.215,401.412c-1.985,1.516-2.361,4.354-0.846,6.344l0.021-0.013c0.854,1.108,2.168,1.769,3.568,1.793
			c0.986-0.005,1.944-0.329,2.729-0.926c0.003,0,0.003-0.003,0.007-0.003c1.976-1.511,2.352-4.34,0.84-6.315
			C57.027,400.309,54.207,399.92,52.215,401.412z"/>
		<path fill="#010101" d="M91.818,438.034c-1.875-1.642-4.72-1.446-6.36,0.427c-1.635,1.861-1.461,4.69,0.385,6.341l0.008-0.004
			c0.838,0.718,1.909,1.113,3.012,1.113c1.296,0,2.527-0.558,3.382-1.531c1.632-1.867,1.441-4.704-0.421-6.344
			C91.823,438.034,91.818,438.034,91.818,438.034z"/>
		<polygon fill="#010101" points="105.655,460.598 105.669,460.598 105.663,460.594 		"/>
		<path fill="#010101" d="M67.572,87.826c0.838,0.777,1.94,1.206,3.085,1.195c1.259,0.011,2.464-0.515,3.318-1.446
			c1.691-1.832,1.58-4.688-0.249-6.385c-0.009-0.008-0.019-0.014-0.025-0.021c-1.84-1.675-4.688-1.544-6.361,0.297v-0.022
			c-1.691,1.833-1.581,4.691,0.247,6.386L67.572,87.826z"/>
		<path fill="#010101" d="M67.931,420.757c-1.831,1.698-1.942,4.55-0.248,6.386l0.02-0.015c0.853,0.907,2.037,1.425,3.279,1.438
			c1.137,0.01,2.234-0.419,3.069-1.196c1.82-1.704,1.918-4.562,0.223-6.387C72.585,419.17,69.747,419.068,67.931,420.757z"/>
		<path fill="#010101" d="M85.057,70.11c0.859,0.979,2.099,1.539,3.404,1.534c1.089,0.002,2.143-0.399,2.961-1.126
			c0.007-0.008,0.021-0.019,0.027-0.029c1.852-1.651,2.008-4.488,0.356-6.336c-1.636-1.866-4.478-2.054-6.344-0.421
			c-1.866,1.657-2.04,4.515-0.385,6.386L85.057,70.11z"/>
		<path fill="#010101" d="M104.191,54.199c0.861,1.181,2.235,1.879,3.698,1.87c0.944-0.008,1.866-0.303,2.639-0.845
			c2.006-1.467,2.461-4.276,1.016-6.3c-0.005-0.003-0.009-0.008-0.013-0.012c-1.465-2.02-4.287-2.469-6.306-1.002
			c0,0-0.006,0-0.006,0.003c-2.015,1.458-2.469,4.276-1.011,6.293L104.191,54.199z"/>
		<path fill="#010101" d="M124.821,40.276c0.818,1.389,2.305,2.238,3.914,2.237c0.804,0.009,1.593-0.203,2.282-0.607
			c0.004-0.003,0.006-0.006,0.016-0.009c2.145-1.254,2.867-4.006,1.61-6.148c-0.008-0.02-0.021-0.037-0.028-0.058
			c-1.26-2.124-4.007-2.827-6.133-1.568c-0.004,0.003-0.004,0.006-0.009,0.009c-2.151,1.247-2.882,4.001-1.636,6.15L124.821,40.276z
			"/>
		<path fill="#010101" d="M175.934,486.594h-0.004c-2.357-0.79-4.911,0.481-5.7,2.841c-0.004,0.01-0.004,0.017-0.007,0.021
			c-0.786,2.359,0.49,4.906,2.849,5.691l0.018-0.005c0.457,0.158,0.941,0.242,1.425,0.248c1.937-0.005,3.654-1.249,4.266-3.085
			c0.005-0.009,0.005-0.013,0.008-0.021C179.573,489.921,178.293,487.375,175.934,486.594z"/>
		<path fill="#010101" d="M197.952,15.22c0.344-0.005,0.685-0.042,1.021-0.109c0.004-0.003,0.012-0.005,0.016-0.005
			c2.425-0.564,3.933-2.99,3.367-5.415c0-0.01-0.006-0.02-0.01-0.032c-0.561-2.412-2.973-3.912-5.385-3.35
			c-2.429,0.549-3.957,2.961-3.411,5.393l-0.017,0.009C194.011,13.763,195.841,15.217,197.952,15.22z"/>
		<path fill="#010101" d="M174.005,21.987c0.491-0.004,0.981-0.086,1.445-0.246c2.367-0.799,3.64-3.364,2.846-5.73
			c-0.817-2.352-3.37-3.608-5.732-2.821c-0.005,0-0.008,0.003-0.011,0.006c-2.353,0.8-3.611,3.353-2.811,5.702l-0.016,0.01
			C170.342,20.748,172.065,21.987,174.005,21.987z"/>
		<path fill="#010101" d="M131.458,466.528c-2.163-1.244-4.928-0.502-6.178,1.653c-0.006,0.005-0.006,0.011-0.009,0.011
			c-1.235,2.16-0.488,4.914,1.672,6.147l0.014-0.006c0.673,0.397,1.441,0.614,2.225,0.614c1.615,0,3.11-0.859,3.924-2.256
			C134.345,470.538,133.61,467.783,131.458,466.528z"/>
		<path fill="#010101" d="M150.877,31.145c0.64-0.011,1.268-0.154,1.848-0.421c0.003-0.002,0.003-0.002,0.003-0.002
			c2.268-1.022,3.278-3.69,2.254-5.959c0-0.001,0-0.004,0-0.006c-1.028-2.271-3.704-3.28-5.979-2.252
			c-2.272,1.031-3.28,3.705-2.252,5.979l-0.021-0.012C147.466,30.105,149.089,31.152,150.877,31.145z"/>
		<path fill="#010101" d="M153.19,477.682c-0.016-0.01-0.032-0.018-0.054-0.028c-2.259-0.997-4.901,0.028-5.901,2.281
			c-0.009,0.018-0.013,0.038-0.021,0.053c-1.004,2.26,0.018,4.905,2.275,5.904h0.017c0.575,0.265,1.202,0.403,1.838,0.403
			c1.771,0,3.382-1.04,4.105-2.657c0.005-0.018,0.012-0.026,0.017-0.043C156.474,481.334,155.455,478.69,153.19,477.682z"/>
		<path fill="#010101" d="M33.056,360.703c-1.081-2.248-3.777-3.186-6.021-2.103c-0.006,0.005-0.008,0.005-0.014,0.005
			c-2.242,1.085-3.185,3.782-2.102,6.021l0.021-0.027c0.729,1.57,2.309,2.588,4.043,2.592c0.682,0.005,1.354-0.151,1.962-0.454
			c2.246-1.083,3.193-3.774,2.115-6.021C33.061,360.709,33.056,360.707,33.056,360.703z"/>
		<path fill="#010101" d="M17.578,173.215h0.004c0.5,0.173,1.021,0.259,1.545,0.255c1.887-0.015,3.571-1.191,4.229-2.96
			c0-0.002,0.004-0.004,0.004-0.007c0.848-2.341-0.367-4.924-2.708-5.771c-0.004-0.002-0.009-0.002-0.009-0.002
			c-2.338-0.854-4.92,0.354-5.771,2.687C14.022,169.766,15.231,172.362,17.578,173.215z"/>
		<path fill="#010101" d="M51.952,107.191l-0.021-0.005c0.786,0.61,1.752,0.937,2.748,0.931c1.412-0.005,2.745-0.674,3.587-1.806
			c0.006-0.004,0.009-0.008,0.013-0.012c1.503-1.979,1.12-4.802-0.854-6.308c-1.99-1.492-4.816-1.1-6.318,0.88
			c-0.005,0.008-0.014,0.013-0.016,0.02C49.59,102.87,49.973,105.688,51.952,107.191z"/>
		<path fill="#010101" d="M10.697,197.135l0.004-0.001c0.375,0.092,0.756,0.136,1.14,0.136c2.069,0.006,3.874-1.402,4.379-3.409
			c0-0.001,0-0.005,0-0.005c0.611-2.421-0.856-4.881-3.276-5.491c0,0-0.003,0-0.003-0.003c-2.425-0.611-4.883,0.855-5.494,3.276
			c-0.005,0.015-0.006,0.032-0.012,0.048C6.832,194.092,8.292,196.533,10.697,197.135z"/>
		<path fill="#010101" d="M4.753,271.304c0.013,0,0.024,0,0.038-0.006c2.477-0.131,4.382-2.25,4.249-4.736
			c-0.141-2.482-2.251-4.393-4.738-4.284c-2.48,0.142-4.394,2.253-4.286,4.739l0.013,0.008c0.132,2.388,2.103,4.264,4.494,4.279
			H4.753z"/>
		<path fill="#010101" d="M4.312,246.417c0.066,0.017,0.137,0.024,0.202,0.021c2.412-0.004,4.398-1.896,4.514-4.306
			c0.116-2.486-1.805-4.596-4.287-4.717c-2.494-0.123-4.613,1.796-4.736,4.284c0,0,0,0,0,0.004
			C-0.107,244.193,1.822,246.303,4.312,246.417z"/>
		<path fill="#010101" d="M488.061,181.294h0.004c0.6,1.877,2.336,3.154,4.306,3.163c0.45-0.005,0.901-0.073,1.327-0.204
			c0.007,0,0.01-0.002,0.018-0.002c2.369-0.744,3.691-3.268,2.948-5.641c0,0,0,0,0-0.001c-0.743-2.375-3.27-3.699-5.645-2.958
			C488.646,176.393,487.32,178.919,488.061,181.294z"/>
		<path fill="#010101" d="M497.791,229.134h0.005c0.234,2.299,2.173,4.051,4.482,4.06c0.162,0,0.313-0.022,0.455-0.022
			c2.479-0.265,4.281-2.484,4.041-4.965c0,0,0-0.002,0-0.004c-0.255-2.479-2.467-4.285-4.945-4.036
			C499.343,224.427,497.539,226.649,497.791,229.134z"/>
		<path fill="#010101" d="M494.13,204.962h0.009c0.417,2.098,2.256,3.61,4.393,3.611c0.304,0.007,0.609-0.025,0.906-0.089
			c0.007,0,0.019-0.002,0.026-0.003c2.439-0.498,4.013-2.881,3.513-5.319c-0.497-2.443-2.884-4.02-5.322-3.523
			c-0.012,0.002-0.016,0.002-0.021,0.004C495.196,200.145,493.627,202.526,494.13,204.962z"/>
		<path fill="#010101" d="M6.273,221.617h0.003c0.225,0.042,0.452,0.058,0.679,0.052c2.233,0.003,4.13-1.63,4.465-3.837
			c0.004-0.002,0.004-0.003,0.004-0.005c0.366-2.471-1.339-4.77-3.809-5.137c-2.474-0.364-4.773,1.336-5.146,3.806
			C2.115,218.959,3.812,221.248,6.273,221.617z"/>
		<path fill="#010101" d="M7.689,296.027c2.466-0.365,4.165-2.659,3.801-5.125c0-0.006-0.005-0.018-0.005-0.029
			c-0.375-2.462-2.675-4.151-5.137-3.777c-0.005,0-0.005,0-0.005,0c-2.465,0.37-4.167,2.661-3.802,5.132h0.015
			c0.336,2.205,2.222,3.832,4.453,3.839c0.223,0.01,0.45-0.007,0.671-0.039C7.686,296.027,7.689,296.027,7.689,296.027z"/>
		<path fill="#010101" d="M44.74,382.122c-1.305-2.114-4.075-2.776-6.19-1.472c-2.119,1.311-2.774,4.089-1.465,6.203l0.02-0.028
			c0.798,1.352,2.243,2.185,3.813,2.192c0.838,0,1.655-0.234,2.37-0.672c2.119-1.309,2.776-4.088,1.467-6.208
			C44.748,382.132,44.745,382.129,44.74,382.122z"/>
		<path fill="#010101" d="M199.492,493.176c-0.005,0-0.005,0-0.005,0c-2.437-0.549-4.856,0.977-5.41,3.413
			c-0.544,2.427,0.979,4.837,3.404,5.395c0.331,0.065,0.66,0.104,0.995,0.111c2.115-0.007,3.949-1.465,4.424-3.523
			C203.441,496.142,201.917,493.731,199.492,493.176z"/>
		<path fill="#010101" d="M38.318,128.02l-0.016-0.006c0.709,0.434,1.527,0.663,2.358,0.658c1.573,0,3.03-0.809,3.86-2.142
			c0.005-0.008,0.009-0.014,0.013-0.021c1.289-2.128,0.604-4.896-1.523-6.184c-2.126-1.3-4.901-0.635-6.204,1.49
			C35.526,123.949,36.199,126.713,38.318,128.02z"/>
		<path fill="#010101" d="M26.812,150.086l-0.021-0.006c0.611,0.296,1.285,0.443,1.962,0.432c1.731-0.003,3.312-0.986,4.084-2.537
			c1.063-2.249,0.12-4.934-2.113-6.025c0-0.003-0.007-0.003-0.01-0.003c-2.246-1.077-4.938-0.131-6.018,2.116
			c-0.004,0.006-0.004,0.012-0.007,0.018C23.616,146.327,24.565,149.013,26.812,150.086z"/>
		<path fill="#010101" d="M16.334,314.82c0,0,0,0,0-0.008c-0.615-2.419-3.077-3.882-5.498-3.264
			c-2.411,0.617-3.864,3.079-3.245,5.496v0.005c0.498,2.008,2.3,3.408,4.365,3.402c0.38,0,0.756-0.041,1.127-0.133
			c0.021-0.01,0.037-0.01,0.058-0.018C15.537,319.671,16.965,317.215,16.334,314.82z"/>
		<path fill="#010101" d="M23.538,338.155c-0.86-2.335-3.441-3.521-5.771-2.667c-0.009,0.004-0.017,0.004-0.024,0.004
			c-2.334,0.854-3.535,3.438-2.686,5.774c0.653,1.783,2.347,2.973,4.246,2.973c0.533,0,1.063-0.098,1.558-0.289
			c0.003,0,0.003,0,0.008-0.004c2.334-0.855,3.531-3.44,2.673-5.772C23.542,338.167,23.538,338.161,23.538,338.155z"/>
		<path fill="#010101" d="M320.419,490.115c-0.01,0.002-0.021,0.005-0.032,0.01c-2.39,0.673-3.777,3.151-3.102,5.54h-0.02
			c0.556,1.958,2.341,3.302,4.371,3.294c0.416,0.008,0.832-0.054,1.222-0.183v0.026c2.399-0.679,3.804-3.171,3.138-5.577
			C325.312,490.829,322.822,489.445,320.419,490.115z"/>
		<path fill="#010101" d="M441.405,96.126c0.854,1.035,2.126,1.632,3.469,1.625c1.058,0.005,2.086-0.369,2.888-1.057
			c0-0.003,0.004-0.005,0.004-0.006c1.905-1.608,2.146-4.458,0.54-6.361c-1.606-1.896-4.445-2.139-6.343-0.54
			c-0.011,0.004-0.015,0.01-0.018,0.014c-1.896,1.603-2.127,4.436-0.524,6.33L441.405,96.126z"/>
		<path fill="#010101" d="M448.084,411.08c-1.908-1.601-4.752-1.362-6.37,0.537c-1.601,1.917-1.344,4.767,0.569,6.365l0.019-0.013
			c0.798,0.685,1.814,1.058,2.867,1.058c1.336,0,2.609-0.586,3.476-1.602h-0.02C450.225,415.521,449.981,412.681,448.084,411.08z"/>
		<path fill="#010101" d="M456.206,115.581c0.847,1.233,2.254,1.964,3.753,1.941c0.905,0,1.794-0.274,2.536-0.786
			c2.049-1.412,2.572-4.216,1.174-6.271c-0.006-0.009-0.008-0.017-0.015-0.021c-1.416-2.041-4.22-2.549-6.263-1.131
			c-0.013,0.011-0.031,0.023-0.046,0.031c-2.032,1.413-2.537,4.207-1.122,6.241L456.206,115.581z"/>
		<path fill="#010101" d="M462.75,390.96c-0.012-0.011-0.024-0.019-0.037-0.025c-2.061-1.378-4.845-0.818-6.222,1.239h-0.018
			c0,0.002-0.007,0.01-0.007,0.01c-1.396,2.06-0.858,4.87,1.204,6.268l0.004-0.025c0.748,0.498,1.628,0.768,2.527,0.768
			c1.499,0.004,2.899-0.73,3.745-1.964C465.34,395.165,464.806,392.363,462.75,390.96z"/>
		<path fill="#010101" d="M431.434,429.606c-1.732-1.756-4.564-1.781-6.327-0.05h-0.023c-1.775,1.739-1.804,4.59-0.063,6.367
			l0.021-0.013c0.839,0.858,1.981,1.354,3.182,1.371c1.18,0.007,2.315-0.451,3.162-1.271c1.78-1.745,1.809-4.604,0.065-6.388
			C431.444,429.622,431.441,429.618,431.434,429.606z"/>
		<path fill="#010101" d="M406.801,445.731c-0.009,0.008-0.021,0.019-0.034,0.025c-1.927,1.56-2.226,4.385-0.666,6.318l0.001-0.008
			c0.856,1.072,2.151,1.701,3.525,1.701c1.027-0.008,2.018-0.356,2.82-0.991c1.945-1.562,2.259-4.401,0.695-6.342
			C411.589,444.484,408.747,444.171,406.801,445.731z"/>
		<path fill="#010101" d="M469,136.388c0.801,1.452,2.329,2.351,3.989,2.342c0.757,0,1.505-0.194,2.163-0.563
			c2.177-1.2,2.97-3.931,1.788-6.113c-1.199-2.189-3.947-2.994-6.141-1.802c0,0,0,0,0,0.001c-2.189,1.203-2.984,3.949-1.785,6.14
			L469,136.388z"/>
		<path fill="#010101" d="M424.724,78.254c0.843,0.824,1.975,1.281,3.151,1.273c1.224,0.007,2.395-0.481,3.253-1.354
			c1.739-1.788,1.696-4.646-0.086-6.386c-1.791-1.735-4.647-1.697-6.386,0.09c-1.739,1.788-1.7,4.646,0.085,6.384L424.724,78.254z"
			/>
		<path fill="#010101" d="M475.359,369.523c-0.004,0-0.006-0.005-0.013-0.005c-2.189-1.183-4.918-0.374-6.098,1.813
			c-0.011,0.01-0.018,0.025-0.021,0.035c-1.179,2.183-0.354,4.905,1.825,6.079l0.024-0.028c0.645,0.377,1.373,0.576,2.116,0.588
			c1.651,0,3.176-0.895,3.971-2.345v-0.021c0-0.003,0-0.003,0.006-0.008C478.353,373.448,477.548,370.714,475.359,369.523z"/>
		<path fill="#010101" d="M502.772,274.444c-0.016,0-0.035,0-0.051-0.005c-2.462-0.227-4.643,1.581-4.874,4.042
			c-0.249,2.481,1.563,4.692,4.038,4.939l0.012,0.008c0.162,0,0.3,0.026,0.451,0.026c2.313-0.026,4.24-1.785,4.482-4.088
			C507.06,276.886,505.25,274.687,502.772,274.444z"/>
		<path fill="#010101" d="M508.08,253.508c-0.015-2.495-2.043-4.513-4.543-4.511c0,0-0.002,0-0.006,0
			c-2.492,0.016-4.494,2.048-4.479,4.538v0.312v0.218l0.005,0.004c0,0.005,0,0.011,0,0.017c-0.005,2.494,2.008,4.522,4.506,4.522
			c2.499-0.007,4.519-2.04,4.517-4.534c0.002-0.092-0.005-0.183-0.027-0.271C508.075,253.705,508.082,253.608,508.08,253.508z"/>
		<path fill="#010101" d="M499.558,299.106c-0.017-0.008-0.034-0.008-0.047-0.01c-2.432-0.473-4.788,1.12-5.256,3.554
			c-0.006,0.01-0.006,0.017-0.012,0.025c-0.482,2.427,1.096,4.792,3.526,5.278c0.301,0.065,0.602,0.094,0.907,0.086
			c2.144,0.006,3.993-1.506,4.426-3.605v-0.024C503.575,301.966,501.994,299.6,499.558,299.106z"/>
		<path fill="#010101" d="M406.393,62.108l-0.016-0.009c0.8,0.652,1.804,1.006,2.835,0.999c1.376,0,2.673-0.633,3.521-1.715
			c1.55-1.95,1.227-4.787-0.72-6.342c-1.958-1.536-4.782-1.215-6.344,0.723C404.118,57.716,404.445,60.554,406.393,62.108z"/>
		<path fill="#010101" d="M493.863,323.358c-2.373-0.739-4.896,0.587-5.638,2.962v0.003c-0.729,2.389,0.619,4.911,3.001,5.639
			l-0.005,0.008c0.427,0.138,0.865,0.207,1.31,0.212c1.983,0,3.744-1.288,4.332-3.183c0.004,0,0.004-0.002,0.004-0.002
			C497.597,326.61,496.25,324.086,493.863,323.358z"/>
		<path fill="#010101" d="M483.825,161.117c0.608,0,1.207-0.124,1.763-0.361c2.29-0.98,3.355-3.624,2.395-5.922
			c-0.975-2.292-3.626-3.361-5.923-2.388c-2.29,0.976-3.363,3.626-2.391,5.92C480.387,160.029,482.016,161.105,483.825,161.117z"/>
		<path fill="#010101" d="M485.78,346.914c-0.008-0.001-0.013-0.006-0.019-0.006c-2.299-0.962-4.941,0.125-5.904,2.422v0.004
			c-0.966,2.284,0.102,4.917,2.391,5.882l0.022-0.032c0.55,0.257,1.144,0.39,1.75,0.406c1.814-0.005,3.454-1.085,4.172-2.751
			C489.158,350.535,488.077,347.887,485.78,346.914z"/>
		<path fill="#010101" d="M296.057,12.542c0.262,0.047,0.528,0.071,0.797,0.071c2.188-0.011,4.054-1.59,4.427-3.746
			c0.424-2.447-1.21-4.779-3.654-5.21c-2.463-0.43-4.807,1.215-5.234,3.673C291.968,9.783,293.61,12.109,296.057,12.542z"/>
		<path fill="#010101" d="M271.827,9.57l-0.013-0.007c0.108,0.023,0.223,0.031,0.331,0.027c2.369-0.002,4.329-1.836,4.495-4.196
			c0.176-2.483-1.69-4.646-4.175-4.829h-0.004c-2.491-0.174-4.65,1.706-4.826,4.195C267.466,7.247,269.346,9.399,271.827,9.57z"/>
		<path fill="#010101" d="M272.352,498.545c-2.484,0.183-4.353,2.345-4.169,4.832l0.003-0.008c0.178,2.353,2.145,4.179,4.505,4.179
			h0.338c0.016,0,0.025,0,0.036,0c2.473-0.198,4.315-2.359,4.124-4.827c0-0.01-0.007-0.012-0.007-0.021
			C276.996,500.22,274.835,498.361,272.352,498.545z"/>
		<path fill="#010101" d="M296.067,12.544c-0.006,0-0.009-0.002-0.01-0.002c-0.003-0.002-0.005-0.002-0.008-0.002L296.067,12.544z"
			/>
		<path fill="#010101" d="M247.281,9.03h0.115c0,0,0.004,0,0.009,0c2.489-0.076,4.447-2.159,4.368-4.649
			c0-0.017-0.003-0.033-0.003-0.049c-0.083-2.475-2.151-4.412-4.626-4.329c-0.004,0-0.009,0-0.017,0
			c-2.478,0.075-4.432,2.146-4.357,4.628l-0.021-0.005C242.794,7.09,244.818,9.055,247.281,9.03z"/>
		<path fill="#010101" d="M247.92,499.157c-2.491-0.053-4.56,1.91-4.63,4.402c-0.054,2.487,1.913,4.555,4.398,4.626h0.116
			c2.453,0.019,4.464-1.947,4.514-4.398c0-0.004,0-0.004,0-0.004C252.381,501.292,250.411,499.223,247.92,499.157z"/>
		<path fill="#010101" d="M223.545,497.381c-2.475-0.307-4.724,1.45-5.03,3.924c-0.298,2.469,1.457,4.72,3.928,5.03v-0.01
			c0.187,0.027,0.374,0.033,0.561,0.033c2.275,0.009,4.195-1.691,4.469-3.947c0-0.017,0.005-0.029,0.005-0.052
			C227.765,499.901,226.006,497.667,223.545,497.381z"/>
		<path fill="#010101" d="M393.179,461.306c-1.36-2.077-4.149-2.658-6.223-1.294c-2.081,1.354-2.677,4.141-1.335,6.229l0.018-0.004
			c0.83,1.282,2.247,2.068,3.779,2.079c0.875-0.002,1.731-0.259,2.46-0.747c0.006,0,0.011-0.003,0.013-0.008
			c2.082-1.355,2.668-4.14,1.316-6.219C393.197,461.33,393.19,461.318,393.179,461.306z"/>
		<path fill="#010101" d="M222.479,10.877c0.191-0.005,0.375-0.02,0.565-0.043c2.463-0.326,4.21-2.565,3.925-5.033
			c-0.318-2.483-2.59-4.241-5.075-3.926c-0.018,0.003-0.029,0.004-0.047,0.007c-2.465,0.333-4.19,2.604-3.857,5.069l-0.016-0.005
			C218.255,9.212,220.196,10.907,222.479,10.877z"/>
		<path fill="#010101" d="M365.832,472.243c-2.226,1.145-3.1,3.865-1.962,6.091h0.016c0.771,1.493,2.315,2.438,3.998,2.438
			c0.719,0.005,1.422-0.164,2.061-0.497c2.213-1.13,3.095-3.853,1.959-6.072C370.768,471.986,368.048,471.105,365.832,472.243z"/>
		<path fill="#010101" d="M386.538,47.863l-0.021-0.004c0.733,0.481,1.589,0.738,2.464,0.733c1.539,0,2.971-0.782,3.806-2.077
			c1.34-2.097,0.736-4.878-1.353-6.23c-2.098-1.352-4.896-0.745-6.247,1.354C383.842,43.731,384.446,46.515,386.538,47.863z"/>
		<path fill="#010101" d="M296.592,495.528c-0.004,0-0.007,0.003-0.012,0.003c-2.454,0.438-4.082,2.785-3.646,5.23
			c0.381,2.154,2.248,3.726,4.428,3.726c0.267,0,0.532-0.024,0.79-0.069c2.449-0.429,4.098-2.757,3.677-5.21
			C301.395,496.746,299.053,495.096,296.592,495.528z"/>
		<path fill="#010101" d="M365.371,35.676l-0.019-0.004c0.641,0.333,1.353,0.505,2.072,0.501c1.69-0.009,3.24-0.954,4.016-2.455
			c1.131-2.22,0.253-4.938-1.964-6.073c-0.022-0.012-0.041-0.022-0.063-0.034c-2.212-1.106-4.9-0.214-6.006,1.996
			c-0.01,0.015-0.012,0.026-0.021,0.041C362.271,31.859,363.16,34.558,365.371,35.676z"/>
		<path fill="#010101" d="M319.897,17.905l-0.015,0.008c0.403,0.106,0.821,0.156,1.238,0.148c2.023-0.002,3.798-1.347,4.354-3.294
			c0.656-2.403-0.742-4.888-3.135-5.574v0.022c-0.009-0.005-0.023-0.008-0.03-0.009c-2.398-0.664-4.881,0.746-5.545,3.145
			C316.11,14.75,317.509,17.225,319.897,17.905z"/>
		<path fill="#010101" d="M343.076,25.665l-0.009-0.013c0.526,0.203,1.086,0.309,1.651,0.311c1.86,0.001,3.528-1.139,4.2-2.869
			v-0.002c0.915-2.314-0.221-4.931-2.537-5.843c-2.322-0.903-4.942,0.249-5.846,2.572C339.626,22.135,340.762,24.749,343.076,25.665
			z"/>
		<path fill="#010101" d="M349.388,484.853c-0.913-2.306-3.528-3.438-5.844-2.524c-2.31,0.911-3.446,3.53-2.533,5.853l0.014-0.011
			c0.67,1.729,2.333,2.876,4.185,2.876c0.563-0.005,1.123-0.109,1.645-0.311c0,0,0-0.006,0.006-0.006
			c2.319-0.917,3.451-3.543,2.533-5.861C349.388,484.86,349.388,484.86,349.388,484.853z"/>
	</g>
</g>
<g>
	<g>
		<g>
			<path id="Caminho_1498" fill="#FFFFFF" d="M233.062,186.979l27.996-16.452l2.289-7.627l60.29-35.876l1.527,25.949l28.998,34.339
				l1.564,110.905l-59.564,34.092h-7.633l-56.475-33.576L233.062,186.979z"/>
			<g id="Grupo_902" transform="translate(0 15.002)">
				<path id="Caminho_1499" fill="#010101" d="M293.958,323.352c-0.133-0.003-0.266-0.015-0.402-0.03
					c-0.174-0.031-0.279-0.047-0.386-0.07c-0.154-0.04-0.306-0.089-0.452-0.148l-0.366-0.179l-61.899-36.06
					c-1.001-0.584-1.618-1.659-1.62-2.819V172.68l0.014-0.316l0.052-0.336l0.083-0.333l0.105-0.269l0.141-0.306l0.193-0.305
					l0.219-0.289l0.209-0.213l0.283-0.242l0.485-0.333l29.169-16.963v-5.722c0.004-1.164,0.618-2.242,1.624-2.83l61.862-36.041
					c0.498-0.286,1.062-0.44,1.64-0.44c1.801-0.003,3.263,1.453,3.265,3.251c0,0.005,0,0.013,0,0.02v26.821l30.07,32.625
					l0.229,0.281c0.053,0.073,0.122,0.17,0.187,0.28c0.063,0.107,0.131,0.242,0.174,0.334c0.075,0.19,0.116,0.308,0.151,0.416
					c0.035,0.136,0.064,0.274,0.088,0.415c0.021,0.199,0.027,0.333,0.034,0.446v111.391c-0.007,1.159-0.623,2.231-1.622,2.821
					l-61.863,36.037c-0.113,0.065-0.557,0.256-0.561,0.259c-0.196,0.06-0.398,0.104-0.604,0.146
					C294.295,323.314,294.129,323.337,293.958,323.352z M293.958,283.333c1.81,0.003,3.268,1.467,3.268,3.274V314.4l55.321-32.232
					v-103.8L297.226,210.6v56.189c0.004,1.807-1.457,3.27-3.262,3.271c-1.802,0-3.266-1.457-3.27-3.258c0-0.007,0-0.008,0-0.013
					v-56.78l-29.202-31.682l-26.128-2.089v105.946l55.318,32.231v-27.792c-0.005-1.809,1.453-3.279,3.259-3.287
					c0.007,0,0.017,0,0.021,0L293.958,283.333z M266.295,148.934v24.939l28.29,30.697l56.076-32.667l-26.393-28.641l-42.109,24.525
					c-0.498,0.291-1.063,0.445-1.644,0.445c-1.805,0-3.268-1.465-3.268-3.272c0.003-1.157,0.619-2.231,1.621-2.815l42.755-24.914
					v-20.534L266.295,148.934z M242.751,170.249l17.013,1.359V160.34L242.751,170.249z"/>
			</g>
			<g id="Grupo_903" transform="translate(22.375 47.824)">
				<path id="Caminho_1500" fill="#010101" d="M316.818,233.166c-0.325,0.153-0.693,0.201-1.048,0.144l-11.548-2.464l-11.615,12.563
					c-0.529,0.767-1.499,1.1-2.39,0.822c-0.776-0.534-1.139-1.501-0.899-2.415l2.245-17.235l-9.387-7.951
					c-0.67-0.75-0.891-1.806-0.573-2.762c0.226-1.101,0.891-2.061,1.837-2.665l13.048-7.188l5.895-16.675
					c0.321-1.018,1.077-1.841,2.063-2.255c0.8-0.327,1.713,0.059,2.045,0.863l5.762,12.294l13.027-2.546
					c0.807-0.195,1.623,0.305,1.813,1.117c0.007,0.011,0.007,0.017,0.011,0.025c0.227,1.033,0.007,2.11-0.605,2.97l-9.507,14.601
					l2.104,14.604c0.095,1.098-0.238,2.191-0.928,3.054C317.816,232.542,317.353,232.917,316.818,233.166z"/>
			</g>
			<path id="Caminho_1501" fill="#010101" d="M338.912,76.911l-6.794,18.171c-0.635,1.815,0.325,3.792,2.143,4.42
				c1.75,0.611,3.67-0.264,4.361-1.984l6.796-18.177c0.717-1.777-0.146-3.803-1.926-4.516c-1.781-0.717-3.803,0.146-4.52,1.926
				c-0.02,0.053-0.041,0.105-0.061,0.156V76.911z"/>
			<path id="Caminho_1502" fill="#010101" d="M373.931,141.5l-18.174-6.797c-1.78-0.719-3.804,0.146-4.515,1.923
				c-0.72,1.78,0.145,3.806,1.926,4.519c0.05,0.025,0.105,0.042,0.152,0.059l18.183,6.802c1.775,0.714,3.799-0.149,4.518-1.93
				c0.713-1.779-0.151-3.799-1.929-4.516c-0.053-0.021-0.104-0.041-0.156-0.059H373.931z"/>
			<path id="Caminho_1503" fill="#010101" d="M272.106,107.115c-0.664,1.794,0.244,3.793,2.038,4.466l18.177,6.799
				c1.772,0.728,3.799-0.121,4.529-1.9c0.725-1.775-0.126-3.801-1.9-4.528c-0.067-0.026-0.134-0.052-0.201-0.075l-18.175-6.798
				C274.778,104.416,272.784,105.326,272.106,107.115z"/>
			<path id="Caminho_1504" fill="#010101" d="M300.016,81.895c-1.741,0.805-2.501,2.867-1.695,4.609
				c0.38,0.821,1.064,1.464,1.907,1.788c0.862,0.324,1.819,0.285,2.648-0.112c1.741-0.792,2.506-2.837,1.713-4.574
				C303.801,81.87,301.753,81.104,300.016,81.895z"/>
			<path id="Caminho_1505" fill="#010101" d="M298.721,79.046c1.738-0.787,2.504-2.836,1.711-4.573
				c-0.786-1.737-2.836-2.502-4.573-1.71c-1.736,0.789-2.502,2.838-1.71,4.574l0,0c0.382,0.831,1.078,1.473,1.939,1.783
				C296.936,79.473,297.893,79.448,298.721,79.046z"/>
			<path id="Caminho_1506" fill="#010101" d="M304.2,91.079c-0.83,0.386-1.471,1.081-1.785,1.94c-0.659,1.791,0.258,3.772,2.05,4.43
				c1.785,0.663,3.771-0.259,4.433-2.045c0.65-1.777-0.248-3.747-2.014-4.419C306.01,90.648,305.04,90.688,304.2,91.079z"/>
			<path id="Caminho_1507" fill="#010101" d="M363.305,114.208c0.856,0.313,1.799,0.286,2.635-0.072
				c1.738-0.792,2.504-2.841,1.714-4.578c-0.796-1.734-2.841-2.499-4.576-1.71c-1.736,0.795-2.501,2.839-1.711,4.574
				C361.745,113.254,362.446,113.897,363.305,114.208z"/>
			<path id="Caminho_1508" fill="#010101" d="M372.254,103.665c-1.727,0.796-2.487,2.835-1.709,4.571
				c0.756,1.725,2.771,2.509,4.491,1.753c0.028-0.013,0.055-0.028,0.077-0.038c1.74-0.79,2.51-2.835,1.715-4.576
				C376.041,103.638,373.992,102.874,372.254,103.665L372.254,103.665z"/>
			<path id="Caminho_1509" fill="#010101" d="M352.106,113.971c-0.689,1.793,0.209,3.8,2.002,4.487
				c1.789,0.688,3.8-0.213,4.484-2.002c0.334-0.878,0.304-1.851-0.087-2.701c-0.385-0.827-1.082-1.469-1.941-1.783
				c-0.857-0.312-1.797-0.285-2.637,0.075C353.083,112.416,352.426,113.107,352.106,113.971z"/>
		</g>
	</g>
	<g>
		<rect x="137.282" y="337.03" width="37.856" height="77.766"/>
		<g>
			<rect x="138.749" y="340.043" fill="none" width="34.923" height="71.739"/>
			<path fill="#010101" d="M364.108,370.529c-2.395-5.661-7.109-8.27-10.786-8.804v-0.03c-3.676-0.534-6.698,0.503-6.698,0.503
				c-0.13,0.047-0.258,0.107-0.381,0.168l-41.651,19.314c0.054-0.526,0.167-1.029,0.167-1.571c0-8.772-7.269-15.913-16.08-15.913
				h-34.679c-0.153-0.268-0.32-0.641-0.458-0.884c-0.625-1.121-1.298-2.199-2.014-3.25c-1.449-2.106-3.096-4.059-4.912-5.844
				c-7.278-7.125-17.367-11.519-28.455-11.519h-36.678v-6.562c0-2.158-1.747-3.905-3.906-3.905h-42.735
				c-2.159,0-3.905,1.747-3.905,3.905v79.551c0,2.158,1.747,3.906,3.905,3.906h42.735c2.159,0,3.906-1.748,3.906-3.906v-5.753
				l72.959,24.719c0.098,0.028,0.196,0.052,0.305,0.075c8.498,2.15,18.293,0.878,25.707-4.104l75.554-41.057h0.062l1.847-1.053
				C364.215,384.947,366.925,377.179,364.108,370.529z M173.671,411.783h-34.923v-71.739h34.923V411.783z"/>
		</g>
		<path fill="#FFFFFF" d="M357.962,372.659c-1.441-3.417-3.052-3.873-4.729-4.119c-1.634-0.245-2.93,0.185-2.989,0.185
			l-54.515,25.279c-0.427,0.19-0.876,0.305-1.343,0.336c-1.495,0.456-3.036,0.778-4.668,0.778h-54.33v-7.811h54.33
			c1.152,0,2.235-0.229,3.219-0.627l0.046-0.014c2.982-1.214,5.005-4.059,5.005-7.447c0-4.521-3.586-8.101-8.27-8.101h-39.607
			l-1.006-2.363c-0.332-0.763-0.747-1.442-1.358-2.551c-0.496-0.898-1.037-1.769-1.618-2.607c-1.159-1.679-2.486-3.252-3.951-4.684
			c-5.855-5.736-13.94-9.293-22.978-9.293h-36.678v51.188l75.187,25.463h0.015c6.255,1.588,14.249,0.442,19.407-3.021
			c0.105-0.076,0.213-0.137,0.32-0.198l75.827-41.225l1.831-1.021C358.085,379.122,359.251,375.71,357.962,372.659z"/>
	</g>
</g>
</svg>
