<?xml version="1.0" encoding="utf-8"?>
<!-- Generator: Adobe Illustrator 16.0.0, SVG Export Plug-In . SVG Version: 6.00 Build 0)  -->
<!DOCTYPE svg PUBLIC "-//W3C//DTD SVG 1.1//EN" "http://www.w3.org/Graphics/SVG/1.1/DTD/svg11.dtd">
<svg version="1.1" id="Layer_1" xmlns="http://www.w3.org/2000/svg" xmlns:xlink="http://www.w3.org/1999/xlink" x="0px" y="0px"
	 width="285.253px" height="285.312px" viewBox="0 0 285.253 285.312" enable-background="new 0 0 285.253 285.312"
	 xml:space="preserve">
<g id="Grupo_824" transform="translate(304.266 801.128)">
	<ellipse id="Elipse_87" fill="#B2B3B6" cx="-161.717" cy="-658.479" rx="140.171" ry="140.171"/>
	<path id="Caminho_1309" fill="#010101" d="M-165.204-515.816c-1.396-0.041-2.5-1.202-2.47-2.598l0,0
		c0.041-1.398,1.202-2.503,2.6-2.469l0,0c1.398,0.035,2.504,1.197,2.469,2.594v0.002l0,0c-0.029,1.379-1.157,2.479-2.535,2.471
		H-165.204z M-153.7-518.515c-0.102-1.396,0.947-2.611,2.343-2.713l0,0c1.394-0.104,2.605,0.939,2.71,2.333
		c0,0.005,0.003,0.009,0.003,0.012l0,0c0.108,1.385-0.926,2.598-2.314,2.71c-0.005,0-0.011,0-0.018,0h-0.19
		c-1.326,0-2.43-1.024-2.53-2.347L-153.7-518.515z M-179.379-516.857L-179.379-516.857c-1.386-0.172-2.371-1.438-2.205-2.821l0,0
		c0.171-1.392,1.436-2.375,2.825-2.204l0,0l0,0c1.381,0.162,2.369,1.414,2.208,2.797c0,0.009-0.002,0.02-0.002,0.028l0,0
		c-0.153,1.269-1.231,2.22-2.51,2.215l0,0c-0.104,0-0.21-0.004-0.315-0.018V-516.857z M-139.799-519.982
		c-0.247-1.378,0.667-2.694,2.044-2.938c0.002,0,0.005,0,0.007-0.004l0,0c1.382-0.242,2.696,0.684,2.941,2.067l0,0
		c0.234,1.375-0.689,2.685-2.065,2.925l0,0c-0.146,0.023-0.294,0.037-0.443,0.037l0,0
		C-138.537-517.894-139.586-518.775-139.799-519.982z M-193.393-519.301c-1.36-0.308-2.216-1.663-1.91-3.026l0,0
		c0.311-1.367,1.67-2.224,3.037-1.916c0,0,0,0.002,0.002,0.002l0,0c1.362,0.31,2.217,1.664,1.914,3.028l0,0
		c-0.267,1.156-1.296,1.979-2.483,1.979l0,0C-193.022-519.239-193.208-519.262-193.393-519.301z M-126.131-522.847
		c-0.379-1.339,0.4-2.732,1.74-3.109c0.008-0.004,0.015-0.004,0.021-0.007l0,0c1.347-0.374,2.745,0.403,3.13,1.749l0,0
		c0.373,1.348-0.414,2.748-1.761,3.131l0,0v-0.017l0,0c-0.222,0.077-0.453,0.107-0.684,0.104l0,0
		c-1.143,0.004-2.146-0.751-2.457-1.851H-126.131z M-207.097-523.136L-207.097-523.136c-1.324-0.441-2.04-1.872-1.6-3.197
		c0.002-0.002,0.002-0.004,0.004-0.009l0,0c0.443-1.324,1.876-2.041,3.2-1.598h0.002l0,0c1.324,0.441,2.043,1.871,1.603,3.196
		c-0.002,0.006-0.002,0.008-0.005,0.013l0,0c-0.343,1.03-1.308,1.728-2.396,1.729l0,0c-0.271-0.002-0.542-0.05-0.8-0.137
		L-207.097-523.136z M-112.811-527.049c-0.513-1.302,0.125-2.773,1.425-3.284l0,0c1.297-0.512,2.765,0.123,3.281,1.418
		c0,0.002,0,0.006,0.001,0.008l0,0c0.515,1.304-0.12,2.777-1.423,3.293c-0.004,0-0.004,0-0.004,0l0,0
		c-0.293,0.115-0.606,0.174-0.921,0.176l0,0c-1.041,0-1.974-0.643-2.351-1.615L-112.811-527.049z M-220.337-528.332
		c-1.268-0.563-1.841-2.048-1.278-3.316c0.005-0.007,0.007-0.016,0.012-0.028l0,0c0.561-1.267,2.045-1.841,3.313-1.281
		c0.012,0.006,0.021,0.011,0.03,0.015l0,0c1.271,0.567,1.843,2.051,1.277,3.321c-0.002,0.009-0.006,0.015-0.009,0.023l0,0
		c-0.406,0.909-1.311,1.492-2.305,1.494l0,0c-0.357-0.002-0.71-0.08-1.032-0.228H-220.337z M-99.977-532.577
		c-0.639-1.247-0.147-2.777,1.102-3.419l0,0c1.245-0.639,2.771-0.146,3.408,1.101l0,0l0,0c0.639,1.247,0.145,2.774-1.101,3.409l0,0
		l0,0c-0.356,0.185-0.751,0.281-1.155,0.279l0,0c-0.944,0-1.811-0.532-2.245-1.37H-99.977z M-232.995-534.818
		c-1.213-0.694-1.632-2.236-0.938-3.451c0.002-0.002,0.002-0.004,0.004-0.008l0,0c0.703-1.211,2.254-1.624,3.469-0.927l0,0
		c1.208,0.705,1.621,2.249,0.925,3.46l0,0c-0.457,0.783-1.296,1.266-2.203,1.266l0,0c-0.441,0-0.873-0.121-1.25-0.342
		L-232.995-534.818z M-87.763-539.366c-0.755-1.174-0.42-2.734,0.749-3.497l0,0c1.163-0.766,2.729-0.439,3.494,0.726
		c0.005,0.009,0.009,0.016,0.014,0.023l0,0c0.762,1.167,0.431,2.729-0.738,3.49c-0.002,0.002-0.003,0.005-0.007,0.005l0,0
		c-0.409,0.274-0.89,0.417-1.381,0.419l0,0c-0.86-0.008-1.656-0.447-2.122-1.169L-87.763-539.366z M-244.948-542.534h0.012
		c-1.134-0.806-1.4-2.383-0.591-3.52c0.002-0.005,0.007-0.011,0.011-0.016l0,0c0.814-1.137,2.398-1.398,3.534-0.582l0,0l0,0
		c1.134,0.813,1.394,2.39,0.58,3.524c-0.002,0.002-0.007,0.007-0.009,0.013l0,0c-0.476,0.658-1.238,1.05-2.052,1.052l0,0
		c-0.528-0.002-1.045-0.168-1.479-0.474L-244.948-542.534z M-76.267-547.32c-0.875-1.085-0.706-2.67,0.375-3.545
		c0.008-0.006,0.015-0.011,0.019-0.015l0,0c1.092-0.877,2.688-0.701,3.562,0.395l0,0l0,0c0.877,1.089,0.701,2.685-0.392,3.561l0,0
		l0,0c-0.45,0.357-1.007,0.555-1.583,0.557l0,0c-0.771,0-1.498-0.353-1.979-0.957L-76.267-547.32z M-256.066-551.406
		c-1.036-0.928-1.134-2.516-0.216-3.563l0,0c0.92-1.05,2.519-1.158,3.571-0.238c0,0,0.002,0,0.002,0.003l0,0
		c1.045,0.92,1.152,2.511,0.236,3.561l0,0c-0.48,0.544-1.171,0.86-1.898,0.86l0,0C-254.993-550.784-255.593-551.004-256.066-551.406
		z M-65.641-556.393c-0.975-0.996-0.96-2.596,0.038-3.572l0,0h0.012c0.989-0.973,2.58-0.961,3.552,0.028
		c0.005,0.004,0.007,0.006,0.011,0.008l0,0c0.977,1.001,0.96,2.605-0.038,3.586l0,0c-0.477,0.463-1.113,0.719-1.775,0.716l0,0
		c-0.674-0.008-1.321-0.285-1.791-0.768L-65.641-556.393z M-266.261-561.321c-0.951-1.032-0.889-2.633,0.138-3.585l0,0
		c1.021-0.95,2.614-0.89,3.562,0.126l0,0c0.953,1.025,0.897,2.63-0.125,3.585l0,0c-0.468,0.438-1.085,0.678-1.723,0.673l0,0
		c-0.7-0.005-1.366-0.296-1.846-0.803L-266.261-561.321z M-55.949-566.464c-1.072-0.898-1.217-2.498-0.316-3.572l0,0l0,0
		c0.905-1.069,2.503-1.202,3.574-0.303l0,0c1.065,0.9,1.203,2.493,0.305,3.561h0.011c-0.486,0.571-1.201,0.9-1.952,0.9l0,0
		c-0.591,0.001-1.163-0.205-1.613-0.589L-55.949-566.464z M-275.421-572.206L-275.421-572.206c-0.851-1.115-0.64-2.711,0.476-3.563
		l0,0l0,0c1.117-0.834,2.701-0.617,3.548,0.497l0,0c0.849,1.106,0.637,2.695-0.471,3.544c-0.002,0-0.002,0.001-0.005,0.001l0,0
		c-0.44,0.337-0.979,0.52-1.533,0.521l0,0c-0.786-0.013-1.525-0.381-2.008-1.001L-275.421-572.206z M-47.309-577.428
		c-1.156-0.786-1.461-2.361-0.675-3.521c0,0,0.002-0.001,0.002-0.005h0.013c0.773-1.153,2.338-1.461,3.492-0.687
		c0.004,0.002,0.011,0.003,0.016,0.009l0,0c1.155,0.79,1.456,2.364,0.673,3.521l0,0c-0.477,0.694-1.261,1.106-2.104,1.104l0,0
		c-0.504,0-0.998-0.148-1.418-0.431L-47.309-577.428z M-283.441-583.942c-0.735-1.187-0.366-2.748,0.823-3.481l0,0
		c1.187-0.733,2.743-0.361,3.476,0.824c0.002,0.005,0.005,0.007,0.007,0.01l0,0c0.735,1.192,0.366,2.751-0.823,3.485l0,0
		c-0.401,0.246-0.86,0.379-1.331,0.379l0,0c-0.881-0.001-1.695-0.468-2.145-1.226L-283.441-583.942z M-39.796-589.222
		c-1.224-0.66-1.685-2.187-1.024-3.412c0.002-0.005,0.007-0.014,0.013-0.02l0,0c0.661-1.231,2.195-1.685,3.425-1.021
		c0.001,0,0.005,0.006,0.005,0.006l0,0c1.229,0.669,1.681,2.202,1.016,3.428c-0.002,0.004-0.002,0.004-0.002,0.006l0,0v0.013l0,0
		c-0.446,0.813-1.302,1.316-2.23,1.316l0,0c-0.42-0.006-0.829-0.118-1.192-0.327L-39.796-589.222z M-290.269-596.418
		c-0.607-1.26-0.079-2.773,1.18-3.382c0.003,0,0.005,0,0.007-0.004l0,0c1.259-0.606,2.773-0.08,3.381,1.182
		c0,0.002,0.002,0.004,0.002,0.007l0,0c0.605,1.262,0.074,2.772-1.188,3.379l0,0c-0.34,0.169-0.719,0.26-1.102,0.258l0,0
		c-0.974-0.002-1.862-0.569-2.275-1.452L-290.269-596.418z M-33.509-601.702c-1.286-0.543-1.886-2.021-1.343-3.304v-0.004l0,0
		c0.539-1.29,2.022-1.898,3.316-1.357c0.001,0,0.003,0.002,0.009,0.004l0,0c1.29,0.546,1.896,2.029,1.354,3.324l0,0
		c-0.403,0.937-1.323,1.543-2.343,1.545l0,0c-0.34-0.004-0.676-0.08-0.987-0.221L-33.509-601.702z M-295.811-609.53L-295.811-609.53
		c-0.478-1.313,0.197-2.762,1.507-3.24c0.005-0.001,0.009-0.001,0.014-0.003l0,0c1.308-0.482,2.757,0.188,3.239,1.496
		c0,0.002,0.002,0.007,0.002,0.009l0,0c0.482,1.312-0.19,2.763-1.5,3.245c-0.002,0-0.002,0-0.005,0l0,0
		c-0.278,0.108-0.575,0.165-0.874,0.163l0,0C-294.495-607.86-295.445-608.529-295.811-609.53z M-28.474-614.753
		c-1.338-0.409-2.094-1.825-1.685-3.167c0,0,0,0,0-0.001l0,0c0.416-1.333,1.832-2.075,3.165-1.662l0,0
		c1.339,0.407,2.096,1.823,1.687,3.165c0,0.002,0,0.002-0.002,0.002l0,0c-0.331,1.063-1.318,1.786-2.433,1.786l0,0
		c-0.25,0-0.494-0.043-0.734-0.119L-28.474-614.753z M-300.004-623.127c-0.348-1.358,0.468-2.739,1.823-3.089l0,0
		c1.359-0.345,2.741,0.477,3.086,1.835c0,0.001,0,0.001,0,0.001l0,0c0.354,1.348-0.447,2.727-1.792,3.08
		c-0.011,0.005-0.02,0.005-0.032,0.009l0,0c-0.208,0.052-0.419,0.075-0.633,0.075l0,0C-298.712-621.211-299.723-622-300.004-623.127
		L-300.004-623.127z M-24.798-628.233c-1.366-0.274-2.253-1.601-1.98-2.964c0.002-0.004,0.002-0.01,0.005-0.014l0,0
		c0.264-1.369,1.586-2.261,2.95-1.997c0.009,0.003,0.018,0.003,0.026,0.007l0,0c1.368,0.279,2.256,1.605,1.991,2.979l0,0v0.014l0,0
		c-0.242,1.178-1.281,2.026-2.483,2.024l0,0c-0.173,0.004-0.342-0.012-0.509-0.047V-628.233z M-302.839-637.063
		c-0.204-1.386,0.751-2.674,2.135-2.88c0,0,0,0,0.002,0l0,0c1.382-0.21,2.673,0.738,2.885,2.119c0,0.008,0.002,0.015,0.002,0.019
		l0,0c0.204,1.383-0.749,2.671-2.133,2.875c0,0-0.002,0-0.004,0l0,0c-0.126,0.021-0.253,0.029-0.378,0.023l0,0
		c-1.252-0.002-2.312-0.918-2.5-2.156H-302.839z M-22.49-642.006c-1.391-0.14-2.407-1.38-2.268-2.774l0,0
		c0.13-1.38,1.355-2.396,2.735-2.267c0.011,0,0.02,0,0.029,0l0,0c1.391,0.14,2.408,1.372,2.278,2.764l0,0
		c-0.133,1.295-1.217,2.282-2.518,2.296l0,0c-0.083,0-0.159-0.014-0.25-0.014L-22.49-642.006z M-304.256-651.211L-304.256-651.211
		c-0.061-1.396,1.014-2.584,2.407-2.663l0,0c1.396-0.06,2.581,1.012,2.66,2.408l0,0c0.074,1.394-0.995,2.582-2.386,2.656
		c-0.007,0-0.014,0-0.021,0.004h-0.13c-1.344-0.008-2.451-1.066-2.521-2.405H-304.256z M-24.079-658.485L-24.079-658.485v-0.124l0,0
		v-0.176l0,0c-0.009-1.398,1.115-2.539,2.514-2.548c0.002,0,0.003,0,0.003,0l0,0c1.404-0.002,2.543,1.132,2.55,2.535l0,0
		c0.002,0.055-0.002,0.111-0.015,0.162l0,0c0.013,0.052,0.017,0.103,0.015,0.154l0,0c0.002,1.399-1.132,2.541-2.535,2.548l0,0
		c-1.4-0.002-2.531-1.141-2.53-2.542C-24.078-658.479-24.078-658.483-24.079-658.485L-24.079-658.485z M-301.845-662.783
		c-1.398-0.061-2.481-1.247-2.419-2.646l0,0l0,0c0.07-1.397,1.259-2.476,2.66-2.41l0,0c1.394,0.07,2.472,1.257,2.407,2.651l0,0
		c-0.065,1.351-1.18,2.417-2.534,2.418l0,0C-301.768-662.769-301.808-662.773-301.845-662.783z M-24.789-672.485
		c-0.141-1.396,0.873-2.643,2.268-2.789l0,0c1.392-0.143,2.636,0.874,2.775,2.266v0.001l0,0c0.138,1.394-0.877,2.639-2.268,2.79l0,0
		c-0.078,0-0.164,0.01-0.255,0.01l0,0c-1.299-0.002-2.386-0.987-2.518-2.278H-24.789z M-300.743-676.704
		c-1.382-0.208-2.335-1.494-2.136-2.875l0,0c0.208-1.387,1.5-2.342,2.889-2.138l0,0c1.387,0.206,2.344,1.498,2.138,2.884
		c0,0,0,0.002-0.002,0.005l0,0c-0.188,1.238-1.252,2.151-2.507,2.151l0,0c-0.128,0.005-0.255-0.003-0.38-0.027H-300.743z
		 M-26.843-686.053c-0.282-1.368,0.599-2.708,1.966-2.989c0.006,0,0.008-0.002,0.013-0.002l0,0c1.368-0.278,2.708,0.608,2.987,1.978
		l0,0c0.281,1.371-0.602,2.706-1.973,2.987c-0.006,0.003-0.009,0.003-0.015,0.003l0,0c-0.167,0.036-0.338,0.053-0.507,0.05l0,0
		c-1.201-0.001-2.232-0.85-2.468-2.029L-26.843-686.053z M-298.26-690.45c-1.35-0.338-2.171-1.708-1.832-3.061
		c0.002-0.009,0.005-0.018,0.006-0.027l0,0c0.344-1.359,1.723-2.18,3.084-1.837h0.003l0,0c1.358,0.343,2.182,1.725,1.838,3.084
		c0,0,0,0.002,0,0.004l0,0c-0.283,1.125-1.296,1.916-2.458,1.911l0,0c-0.216,0.003-0.429-0.023-0.64-0.075H-298.26z
		 M-30.253-699.344c-0.414-1.334,0.331-2.75,1.663-3.168l0,0l0,0c1.335-0.417,2.753,0.33,3.169,1.661c0,0,0,0,0,0.001l0,0
		c0.416,1.332-0.325,2.748-1.656,3.166c-0.002,0-0.005,0-0.007,0.001l0,0c-0.242,0.074-0.495,0.113-0.746,0.113l0,0
		c-1.106-0.004-2.083-0.723-2.417-1.775H-30.253z M-294.397-703.88c-1.317-0.479-1.996-1.937-1.519-3.254l0,0
		c0.478-1.311,1.927-1.985,3.24-1.511c0,0.003,0.002,0.003,0.004,0.003l0,0c1.314,0.476,1.997,1.924,1.521,3.241
		c0,0-0.002,0-0.002,0.003l0,0c-0.369,0.993-1.315,1.653-2.375,1.663l0,0c-0.294,0.001-0.586-0.046-0.867-0.145H-294.397z
		 M-34.964-712.215c-0.544-1.29,0.057-2.776,1.343-3.326l0,0c1.289-0.545,2.777,0.053,3.325,1.343l0,0
		c0.539,1.289-0.057,2.772-1.345,3.325l0,0c-0.312,0.132-0.647,0.199-0.987,0.199l0,0C-33.644-710.679-34.56-711.283-34.964-712.215
		z M-289.212-716.865c-1.262-0.603-1.795-2.112-1.192-3.371c0.002-0.005,0.002-0.008,0.005-0.01l0,0
		c0.605-1.261,2.116-1.795,3.378-1.19c0.002,0,0.005,0.002,0.005,0.002l0,0c1.254,0.613,1.783,2.119,1.188,3.383l0,0
		c-0.434,0.87-1.322,1.42-2.294,1.423l0,0c-0.38,0.007-0.758-0.076-1.101-0.24L-289.212-716.865z M-40.944-724.554
		c-0.674-1.229-0.228-2.771,1.002-3.445c0,0,0,0,0-0.002l0,0c1.23-0.67,2.773-0.215,3.446,1.014l0,0
		c0.665,1.223,0.22,2.756-1.002,3.431l0,0c-0.372,0.207-0.792,0.315-1.215,0.315l0,0c-0.933,0.005-1.79-0.501-2.24-1.314
		L-40.944-724.554z M-282.752-729.256c-1.189-0.73-1.568-2.284-0.849-3.482l0,0c0.731-1.192,2.289-1.566,3.483-0.834l0,0
		c1.194,0.723,1.58,2.276,0.856,3.474c-0.002,0.002-0.005,0.003-0.007,0.008l0,0c-0.466,0.75-1.284,1.207-2.168,1.207l0,0
		c-0.466,0-0.925-0.13-1.324-0.372H-282.752z M-48.127-736.235c-0.792-1.141-0.511-2.708,0.632-3.501
		c0.009-0.009,0.018-0.014,0.024-0.019l0,0c1.147-0.797,2.722-0.513,3.518,0.633c0.002,0.004,0.005,0.007,0.007,0.011l0,0
		c0.786,1.155,0.491,2.727-0.658,3.52l0,0c-0.418,0.288-0.916,0.443-1.423,0.443l0,0c-0.844,0.011-1.634-0.397-2.108-1.09
		L-48.127-736.235z M-275.098-740.947c-1.111-0.844-1.327-2.429-0.485-3.539c0.002-0.004,0.007-0.007,0.009-0.009l0,0
		c0.845-1.113,2.43-1.333,3.547-0.496l0,0c1.108,0.846,1.325,2.43,0.48,3.544c-0.003,0-0.004,0.003-0.007,0.003l0,0
		c-0.474,0.638-1.222,1.013-2.015,1.016l0,0c-0.559,0.003-1.101-0.18-1.542-0.523L-275.098-740.947z M-56.438-747.157
		c-0.898-1.062-0.769-2.655,0.296-3.555c0.002-0.003,0.003-0.004,0.009-0.007l0,0c1.065-0.899,2.659-0.762,3.562,0.305l0,0
		c0.902,1.068,0.767,2.665-0.301,3.567c0,0.002-0.003,0.005-0.003,0.005l0,0c-0.452,0.385-1.028,0.598-1.623,0.594l0,0
		c-0.754,0.004-1.468-0.329-1.948-0.914L-56.438-747.157z M-266.319-751.817c-1.027-0.953-1.09-2.555-0.139-3.585l0,0v0.009l0,0
		c0.939-1.032,2.539-1.105,3.571-0.167c0.004,0.004,0.009,0.01,0.014,0.014l0,0c1.027,0.95,1.09,2.555,0.142,3.584l0,0
		c-0.48,0.524-1.157,0.817-1.864,0.813l0,0c-0.643,0.007-1.261-0.235-1.732-0.673L-266.319-751.817z M-65.801-757.19L-65.801-757.19
		c-1.001-0.976-1.024-2.581-0.048-3.584l0,0c0.977-1.002,2.58-1.025,3.585-0.049l0,0c1.002,0.976,1.024,2.578,0.048,3.584l0,0
		c-0.479,0.489-1.139,0.766-1.825,0.761l0,0c-0.66,0.005-1.295-0.255-1.769-0.716L-65.801-757.19z M-256.5-761.761
		c-0.93-1.051-0.832-2.655,0.216-3.586l0,0c1.048-0.915,2.643-0.812,3.561,0.237l0,0c0.927,1.036,0.839,2.629-0.2,3.557
		c-0.004,0.007-0.011,0.012-0.016,0.016l0,0c-0.459,0.408-1.05,0.633-1.662,0.631l0,0c-0.734,0.003-1.429-0.312-1.911-0.86
		L-256.5-761.761z M-76.103-766.259c-1.093-0.871-1.276-2.467-0.406-3.562l0,0c0.877-1.089,2.464-1.27,3.562-0.407l0,0
		c1.093,0.874,1.274,2.467,0.404,3.56l0,0c-0.475,0.608-1.203,0.962-1.975,0.962l0,0c-0.58,0.005-1.145-0.192-1.594-0.558
		L-76.103-766.259z M-245.759-770.694c-0.819-1.134-0.563-2.716,0.568-3.537h0.002l0,0c1.134-0.822,2.717-0.569,3.541,0.563
		c0.002,0.004,0.004,0.004,0.006,0.009l0,0c0.812,1.137,0.557,2.714-0.57,3.533l0,0c-0.434,0.306-0.951,0.474-1.482,0.479l0,0
		c-0.82,0.003-1.593-0.391-2.075-1.053L-245.759-770.694z M-87.251-774.255c-1.172-0.758-1.512-2.32-0.758-3.494l0,0
		c0.758-1.178,2.331-1.522,3.509-0.762l0,0c1.172,0.76,1.511,2.322,0.76,3.498l0,0c-0.468,0.729-1.272,1.167-2.139,1.167l0,0
		c-0.491,0.002-0.97-0.142-1.381-0.416L-87.251-774.255z M-234.177-778.515c-0.7-1.206-0.29-2.75,0.918-3.451
		c0.002-0.002,0.002-0.005,0.005-0.005l0,0c1.194-0.706,2.736-0.312,3.443,0.883c0.005,0.008,0.012,0.018,0.016,0.029l0,0
		c0.706,1.204,0.299,2.748-0.904,3.452c-0.004,0-0.006,0.002-0.009,0.004l0,0c-0.387,0.228-0.83,0.347-1.28,0.344l0,0
		c-0.904,0-1.739-0.479-2.199-1.257H-234.177z M-99.133-781.098L-99.133-781.098c-1.242-0.628-1.74-2.143-1.114-3.385
		c0.004-0.007,0.008-0.014,0.011-0.022l0,0c0.621-1.242,2.132-1.743,3.372-1.122c0.012,0.007,0.024,0.013,0.035,0.02l0,0
		c1.245,0.638,1.738,2.164,1.104,3.411l0,0c-0.437,0.842-1.305,1.374-2.255,1.378l0,0c-0.405,0.004-0.804-0.093-1.163-0.283
		L-99.133-781.098z M-221.874-785.135c-0.578-1.277-0.012-2.781,1.263-3.358l0,0c1.278-0.577,2.781-0.012,3.357,1.264
		c0,0,0,0.002,0,0.004l0,0c0.576,1.271,0.007,2.768-1.266,3.344c0,0,0,0-0.002,0l0,0c-0.325,0.153-0.677,0.232-1.037,0.238l0,0
		c-1.004,0.003-1.915-0.584-2.328-1.5L-221.874-785.135z M-111.651-786.718c-1.299-0.516-1.936-1.983-1.427-3.284l0,0
		c0.509-1.303,1.979-1.948,3.28-1.442l0,0c1.301,0.512,1.939,1.98,1.427,3.279c0,0.002,0,0.002,0,0.002l0,0
		c-0.377,0.971-1.314,1.611-2.357,1.611l0,0c-0.318-0.002-0.633-0.061-0.927-0.176L-111.651-786.718z M-208.966-790.516
		c-0.45-1.323,0.257-2.755,1.577-3.205c0.002,0,0.005,0,0.007-0.003l0,0c1.327-0.442,2.759,0.263,3.219,1.584l0,0
		c0.445,1.329-0.27,2.769-1.598,3.218l0,0c-0.259,0.088-0.536,0.135-0.812,0.137l0,0c-1.089,0.002-2.057-0.696-2.401-1.728
		L-208.966-790.516z M-124.664-791.076c-1.34-0.383-2.125-1.774-1.758-3.118l0,0c0.372-1.348,1.765-2.138,3.112-1.767
		c0.005,0.002,0.012,0.005,0.017,0.005l0,0v-0.01l0,0c1.346,0.383,2.129,1.779,1.76,3.128l0,0c-0.311,1.091-1.308,1.847-2.444,1.847
		l0,0c-0.234,0.004-0.468-0.023-0.694-0.082L-124.664-791.076z M-195.601-794.56c-0.306-1.364,0.552-2.718,1.916-3.026l0,0
		c1.354-0.317,2.708,0.526,3.023,1.88c0.003,0.008,0.005,0.015,0.005,0.02l0,0c0.317,1.361-0.53,2.721-1.89,3.04
		c-0.002,0.001-0.007,0.001-0.009,0.001l0,0c-0.188,0.039-0.381,0.061-0.573,0.061l0,0c-1.185,0-2.212-0.815-2.481-1.97
		L-195.601-794.56z M-138.043-794.083c-1.377-0.24-2.299-1.55-2.063-2.928l0,0c0.242-1.379,1.557-2.305,2.938-2.063l0,0
		c1.373,0.244,2.29,1.552,2.053,2.924l0,0c-0.209,1.21-1.258,2.099-2.486,2.105l0,0c-0.151,0-0.303-0.013-0.45-0.042
		L-138.043-794.083z M-181.878-797.227c-0.188-1.381,0.781-2.657,2.166-2.846c0.009,0,0.016-0.001,0.025-0.001l0,0
		c1.396-0.179,2.672,0.807,2.85,2.203l0,0c0.159,1.387-0.821,2.644-2.202,2.825l0,0c-0.107,0.015-0.212,0.022-0.318,0.025l0,0
		c-1.283,0.016-2.373-0.934-2.53-2.205H-181.878z M-151.652-795.757c-1.393-0.095-2.447-1.303-2.354-2.699l0,0
		c0.098-1.398,1.312-2.453,2.709-2.355h0.003l0,0c1.396,0.101,2.442,1.316,2.345,2.712l0,0c-0.094,1.327-1.196,2.354-2.524,2.356
		l0,0c-0.063,0-0.125-0.004-0.188-0.014H-151.652z M-167.966-798.53c-0.042-1.391,1.054-2.555,2.446-2.596c0.004,0,0.006,0,0.009,0
		l0,0c1.39-0.046,2.551,1.042,2.598,2.43c0,0.008,0.002,0.018,0.002,0.026l0,0c0.044,1.398-1.056,2.57-2.454,2.612
		c-0.002,0-0.005,0-0.005,0h-0.064c-1.383,0.014-2.518-1.09-2.544-2.472H-167.966z"/>
</g>
<g>
	<g id="Grupo_932" transform="translate(31.961)">
		<path id="Retângulo_189" fill="#FFFFFF" d="M70.676,123.986h80.367c12.083,0,21.878,10.527,21.878,23.512v59.694
			c0,12.983-9.795,23.511-21.878,23.511H70.676c-12.083,0-21.878-10.527-21.878-23.511v-59.694
			C48.798,134.513,58.593,123.986,70.676,123.986z"/>
		<g id="surface1">
			<path id="Caminho_1592" fill="#010101" d="M162.762,122.2v-16.312c0.033-28.755-23.255-52.093-52.016-52.124
				c-28.756-0.028-52.09,23.26-52.124,52.019c0,0.034,0,0.071,0,0.105V122.2c-8.083,1.649-13.892,8.758-13.903,17.009v19.705
				c-0.222,1.916,1.155,3.651,3.072,3.874c1.917,0.225,3.652-1.149,3.874-3.069c0.028-0.267,0.028-0.538,0-0.805v-19.705
				c0.005-5.749,4.665-10.404,10.416-10.41h97.194c5.745,0.005,10.404,4.661,10.415,10.41v74.979
				c0.04,4.424-2.759,8.378-6.945,9.816c-0.412,0.319-12.139,0.688-18.379,0.628c-25.053,0-82.285-0.028-82.285-0.028
				c-5.751-0.009-10.41-4.667-10.416-10.416v-27.424c0.222-1.917-1.155-3.651-3.072-3.873c-1.917-0.223-3.651,1.152-3.874,3.068
				c-0.028,0.268-0.028,0.538,0,0.805v27.424c0.011,9.583,7.776,17.351,17.361,17.359h97.194c9.585-0.009,17.35-7.776,17.361-17.359
				v-74.979C176.624,130.968,170.833,123.863,162.762,122.2z M84.311,121.85v-15.967c-0.028-14.568,11.764-26.403,26.332-26.431
				c14.569-0.026,26.406,11.764,26.435,26.332c0,0.034,0,0.068,0,0.099v15.967H84.311z M144.018,121.85v-15.967
				c0-18.405-14.92-33.323-33.323-33.323c-18.408,0-33.323,14.917-33.323,33.323v15.967H65.568v-15.967
				c0-24.921,20.205-45.124,45.126-45.124c24.921,0,45.128,20.203,45.128,45.124v15.967H144.018z"/>
			<path id="Caminho_1593" fill="#010101" d="M48.212,176.144c1.934,0.006,3.503-1.556,3.503-3.485
				c0.006-1.931-1.553-3.5-3.481-3.503c-1.934-0.006-3.504,1.557-3.504,3.483c-0.006,0.937,0.37,1.832,1.03,2.492
				C46.414,175.78,47.296,176.144,48.212,176.144z"/>
		</g>
	</g>
	<g>
		<g>
			<g>
				<path fill="#010101" d="M183.544,146.287H101.71c-3.949,0-7.162,3.213-7.162,7.163v12.547c0,3.949,3.213,7.161,7.162,7.161
					h81.834c3.949,0,7.162-3.212,7.162-7.161V153.45C190.706,149.5,187.493,146.287,183.544,146.287z M117.902,169.713H101.71
					c-2.05,0-3.717-1.668-3.717-3.717V153.45c0-2.05,1.667-3.718,3.717-3.718h16.192V169.713z M187.261,165.997
					c0,2.049-1.667,3.717-3.717,3.717h-62.197v-19.98h62.197c2.05,0,3.717,1.667,3.717,3.717V165.997z"/>
				<path fill="#010101" d="M104.466,166.957c0.951,0,1.722-0.771,1.722-1.722c0-1.077,0.876-1.952,1.952-1.952
					c1.077,0,1.952,0.875,1.952,1.952c0,0.951,0.771,1.722,1.723,1.722c0.951,0,1.722-0.771,1.722-1.722
					c0-1.419-0.551-2.71-1.449-3.674c0.898-0.964,1.449-2.257,1.449-3.675c0-2.977-2.421-5.398-5.397-5.398
					s-5.397,2.422-5.397,5.398c0,1.418,0.553,2.708,1.452,3.673c-0.899,0.964-1.452,2.256-1.452,3.676
					C102.744,166.186,103.515,166.957,104.466,166.957z M108.141,155.933c1.077,0,1.952,0.877,1.952,1.953s-0.875,1.951-1.952,1.951
					c-1.076,0-1.952-0.875-1.952-1.951C106.188,156.809,107.064,155.933,108.141,155.933z"/>
				<circle cx="132.026" cy="192.565" r="5.204"/>
				<circle cx="146.725" cy="192.565" r="5.091"/>
				<circle cx="161.422" cy="192.565" r="5.038"/>
				<circle cx="132.026" cy="159.69" r="4.906"/>
				<circle cx="146.725" cy="159.723" r="4.982"/>
				<circle cx="161.422" cy="159.723" r="4.874"/>
				<circle cx="176.026" cy="159.723" r="5.071"/>
				<path fill="#010101" d="M161.423,154.326c-2.977,0-5.397,2.421-5.397,5.396c0,2.977,2.421,5.398,5.397,5.398
					s5.397-2.422,5.397-5.398C166.82,156.747,164.399,154.326,161.423,154.326z M161.423,161.675c-1.076,0-1.951-0.877-1.951-1.953
					s0.875-1.951,1.951-1.951s1.953,0.875,1.953,1.951S162.499,161.675,161.423,161.675z"/>
				<path fill="#010101" d="M132.026,154.326c-2.976,0-5.397,2.421-5.397,5.396c0,2.977,2.421,5.398,5.397,5.398
					s5.397-2.422,5.397-5.398C137.423,156.747,135.002,154.326,132.026,154.326z M132.026,161.675c-1.077,0-1.952-0.877-1.952-1.953
					s0.875-1.951,1.952-1.951s1.952,0.875,1.952,1.951S133.103,161.675,132.026,161.675z"/>
				<path fill="#010101" d="M176.121,154.326c-2.975,0-5.396,2.421-5.396,5.396c0,2.977,2.422,5.398,5.396,5.398
					c2.977,0,5.397-2.422,5.397-5.398C181.519,156.747,179.098,154.326,176.121,154.326z M176.121,161.675
					c-1.075,0-1.951-0.877-1.951-1.953s0.876-1.951,1.951-1.951c1.077,0,1.953,0.875,1.953,1.951S177.198,161.675,176.121,161.675z"
					/>
				<path fill="#010101" d="M146.725,154.326c-2.977,0-5.397,2.421-5.397,5.396c0,2.977,2.42,5.398,5.397,5.398
					s5.397-2.422,5.397-5.398C152.122,156.747,149.701,154.326,146.725,154.326z M146.725,161.675c-1.076,0-1.952-0.877-1.952-1.953
					s0.876-1.951,1.952-1.951s1.952,0.875,1.952,1.951S147.801,161.675,146.725,161.675z"/>
				<path fill="#010101" d="M183.544,179.129H101.71c-3.949,0-7.162,3.214-7.162,7.163v12.546c0,3.949,3.213,7.162,7.162,7.162
					h81.834c3.949,0,7.162-3.213,7.162-7.162v-12.546C190.706,182.343,187.493,179.129,183.544,179.129z M117.902,202.556H101.71
					c-2.05,0-3.717-1.668-3.717-3.718v-12.546c0-2.051,1.667-3.718,3.717-3.718h16.192V202.556z M187.261,198.838
					c0,2.05-1.667,3.718-3.717,3.718h-62.197v-19.981h62.197c2.05,0,3.717,1.667,3.717,3.718V198.838z"/>
				<path fill="#010101" d="M132.026,187.169c-2.976,0-5.397,2.42-5.397,5.396c0,2.976,2.421,5.397,5.397,5.397
					c2.976,0,5.397-2.422,5.397-5.397C137.423,189.588,135.001,187.169,132.026,187.169z M132.026,194.517
					c-1.077,0-1.953-0.875-1.953-1.952c0-1.076,0.876-1.951,1.953-1.951c1.076,0,1.952,0.875,1.952,1.951
					C133.978,193.642,133.102,194.517,132.026,194.517z"/>
				<path fill="#010101" d="M146.725,187.169c-2.977,0-5.397,2.42-5.397,5.396c0,2.976,2.42,5.397,5.397,5.397
					s5.397-2.422,5.397-5.397C152.122,189.588,149.701,187.169,146.725,187.169z M146.725,194.517c-1.076,0-1.952-0.875-1.952-1.952
					c0-1.076,0.876-1.951,1.952-1.951s1.952,0.875,1.952,1.951C148.677,193.642,147.801,194.517,146.725,194.517z"/>
				<path d="M161.422,187.169c-2.976,0-5.396,2.42-5.396,5.396c0,2.976,2.421,5.397,5.396,5.397c2.978,0,5.398-2.422,5.398-5.397
					C166.82,189.588,164.399,187.169,161.422,187.169z M161.422,194.517c-1.075,0-1.95-0.875-1.95-1.952
					c0-1.076,0.875-1.951,1.95-1.951c1.077,0,1.953,0.875,1.953,1.951C163.375,193.642,162.499,194.517,161.422,194.517z"/>
				<path fill="#010101" d="M104.925,201.251h7.349c0.951,0,1.723-0.771,1.723-1.723v-6.117c0-0.95-0.771-1.722-1.723-1.722h-5.627
					v-2.412c0-1.077,0.876-1.951,1.953-1.951c1.076,0,1.952,0.874,1.952,1.951c0,0.952,0.771,1.723,1.722,1.723
					c0.951,0,1.723-0.771,1.723-1.723c0-2.977-2.421-5.397-5.397-5.397s-5.397,2.421-5.397,5.397v10.251
					C103.203,200.479,103.974,201.251,104.925,201.251z M106.647,195.133h3.905v2.672h-3.905V195.133z"/>
			</g>
		</g>
	</g>
</g>
</svg>
